<svg xmlns="http://www.w3.org/2000/svg" fill="#fff" width="17.056" height="17.056" viewBox="0 0 17.056 17.056"><defs><style>.a{fill:#fff;}</style></defs><g transform="translate(-145.525 -360.147)"><g transform="translate(145.481 360.147)"><g transform="translate(0.044 0)"><g transform="translate(0 0)"><path class="a" d="M16.741,5.88a.67.67,0,0,0-.238-.347,2.638,2.638,0,0,0-.439-.43L10.035.443A.666.666,0,0,0,9.979.4,2.649,2.649,0,0,0,7.165.4a.659.659,0,0,0-.056.039L1.079,5.1A2.682,2.682,0,0,0,.044,7.212v7.179a2.668,2.668,0,0,0,2.665,2.664H10.9a.666.666,0,1,0,0-1.332H2.709a1.334,1.334,0,0,1-1.332-1.332V7.212a1.341,1.341,0,0,1,.517-1.054l6-4.638a1.324,1.324,0,0,1,1.355,0l5.814,4.494-5.811,4.4a1.324,1.324,0,0,1-1.362,0L3.941,7.452a.666.666,0,1,0-.8,1.066l3.975,2.975.047.032a2.649,2.649,0,0,0,2.815,0q.026-.016.05-.034l5.737-4.339q0,.03,0,.059V8.6a.666.666,0,0,0,1.332,0V7.212A2.673,2.673,0,0,0,16.741,5.88Z" transform="translate(-0.044 0)"/></g></g><g transform="translate(11.284 10.411)"><path class="a" d="M345.6,317.816l-2-1.993a1.009,1.009,0,0,0-1.425,0l-2,1.994a.676.676,0,1,0,.956.957l1.078-1.076v3.8a.676.676,0,1,0,1.353,0v-3.8l1.078,1.076a.676.676,0,1,0,.956-.957Z" transform="translate(-339.984 -315.528)"/></g></g></g></svg>