<svg xmlns="http://www.w3.org/2000/svg" width="33" height="33" viewBox="0 0 33 33"><defs><style>.a{fill:#f75454;}</style></defs><path class="a" d="M60.333,43.833a1.833,1.833,0,0,0-3.667,0V58.5a1.833,1.833,0,1,0,3.667,0ZM70.4,47.12a1.673,1.673,0,0,0-2.393.037,2.048,2.048,0,0,0,.04,2.805A12.674,12.674,0,0,1,71.333,58.5a12.833,12.833,0,1,1-22.379-8.563,2.035,2.035,0,0,0,.033-2.784,1.668,1.668,0,0,0-2.386-.038A16.335,16.335,0,0,0,42,58.5a16.5,16.5,0,1,0,33,0A16.334,16.334,0,0,0,70.4,47.12Z" transform="translate(-42 -42)"/></svg>