<svg xmlns="http://www.w3.org/2000/svg" width="23" height="23" viewBox="0 0 23 23"><defs><style>.a{fill:#0079ff;}</style></defs><path class="a" d="M60.133,47.857a1.207,1.207,0,0,1,1.6-.891,11.526,11.526,0,0,1,4.65,3.5,12.185,12.185,0,0,1,.909,13.778,11.61,11.61,0,0,1-5.335,4.715,11.163,11.163,0,0,1-7,.633A11.433,11.433,0,0,1,48.91,65.9a12.061,12.061,0,0,1-2.845-6.629A12.225,12.225,0,0,1,46.9,53.4a1.2,1.2,0,0,1,1.734-.554,1.568,1.568,0,0,1,.59,1.906,9.418,9.418,0,0,0-.531,4.233,9.286,9.286,0,0,0,2.191,5.1,8.8,8.8,0,0,0,4.657,2.838,8.6,8.6,0,0,0,5.387-.488,8.94,8.94,0,0,0,4.108-3.631,9.382,9.382,0,0,0-.7-10.609,8.889,8.889,0,0,0-3.3-2.572A1.553,1.553,0,0,1,60.133,47.857Z" transform="translate(-46 -46.882)"/></svg>