<svg xmlns="http://www.w3.org/2000/svg" width="24" height="24" viewBox="0 0 24 24"><defs><style>.a{fill:none;}.b{fill:rgba(0,0,0,0.87);}</style></defs><g transform="translate(-164)"><path class="a" d="M164,0h24V24H164Z"/><g transform="translate(167.696 3.696)"><path class="b" d="M15.633,3.585a.616.616,0,0,0-.478-.227H4l-.046-.42,0-.013A3.371,3.371,0,0,0,.616,0a.616.616,0,0,0,0,1.232,2.135,2.135,0,0,1,2.11,1.846l.732,6.727a1.851,1.851,0,0,0-1.087,1.684c0,.005,0,.01,0,.015s0,.01,0,.015A1.85,1.85,0,0,0,4.22,13.368h.251a1.817,1.817,0,1,0,3.441,0h2.658a1.817,1.817,0,1,0,1.721-1.232H4.22A.617.617,0,0,1,3.6,11.52c0-.005,0-.01,0-.015s0-.01,0-.015a.617.617,0,0,1,.616-.616h7.865a2.821,2.821,0,0,0,2.557-1.724.616.616,0,1,0-1.128-.5,1.611,1.611,0,0,1-1.429.987H4.68L4.13,4.589H14.4l-.3,1.445a.616.616,0,1,0,1.206.252L15.758,4.1A.616.616,0,0,0,15.633,3.585ZM12.29,13.368a.585.585,0,1,1-.585.585A.586.586,0,0,1,12.29,13.368Zm-6.1,0a.585.585,0,1,1-.585.585A.586.586,0,0,1,6.191,13.368Z"/></g></g></svg>