<svg xmlns="http://www.w3.org/2000/svg" width="24" height="24" viewBox="0 0 24 24"><defs><style>.a{fill:none;}.b{fill:rgba(0,0,0,0.87);}</style></defs><g transform="translate(-164)"><path class="a" d="M164,0h24V24H164Z"/><g transform="translate(169.531 5)"><g transform="translate(0)"><path class="b" d="M13.321,11.443a.522.522,0,0,0-1.021.213.545.545,0,0,1-.11.457.53.53,0,0,1-.417.2H1.583a.53.53,0,0,1-.417-.2.545.545,0,0,1-.11-.457A5.764,5.764,0,0,1,6.539,7.092l.138,0,.139,0a5.739,5.739,0,0,1,4.635,2.547.522.522,0,1,0,.867-.581A6.785,6.785,0,0,0,8.8,6.387a3.547,3.547,0,1,0-4.246,0A6.785,6.785,0,0,0,.034,11.443a1.585,1.585,0,0,0,1.549,1.911H11.772a1.585,1.585,0,0,0,1.549-1.911Zm-9.147-7.9A2.5,2.5,0,1,1,6.8,6.048H6.551A2.507,2.507,0,0,1,4.174,3.547Z" transform="translate(0)"/></g></g></g></svg>