<svg xmlns="http://www.w3.org/2000/svg" width="24" height="24" viewBox="0 0 24 24"><defs><style>.a{fill:none;}.b{fill:rgba(0,0,0,0.87);}</style></defs><g transform="translate(-164)"><path class="a" d="M164,0h24V24H164Z"/><g transform="translate(129.65 5)"><g transform="translate(40 7.588)"><g transform="translate(0)"><path class="b" d="M49.006,281.012a.55.55,0,0,0-.746-.218,4.841,4.841,0,0,1-7.16-4.247.55.55,0,0,0-1.1,0,5.94,5.94,0,0,0,8.788,5.211A.55.55,0,0,0,49.006,281.012Z" transform="translate(-40 -275.997)"/></g></g><g transform="translate(42.504 0)"><g transform="translate(0 0)"><path class="b" d="M138.713,3.939a5.9,5.9,0,0,0-4.2-1.739H132.5L133.75.936a.55.55,0,0,0-.782-.774L131.555,1.59a1.663,1.663,0,0,0-.008,2.321l1.388,1.422a.55.55,0,1,0,.787-.768L132.486,3.3h2.027a4.84,4.84,0,0,1,4.212,7.222.55.55,0,1,0,.957.543,5.941,5.941,0,0,0-.97-7.125Z" transform="translate(-131.079 0)"/></g></g></g></g></svg>