<svg xmlns="http://www.w3.org/2000/svg" width="24" height="24" viewBox="0 0 24 24"><defs><style>.a{fill:none;}.b{fill:rgba(0,0,0,0.87);}</style></defs><g transform="translate(-164)"><path class="a" d="M164,0h24V24H164Z"/><g transform="translate(71.979 3.5)"><g transform="translate(98.984)"><circle class="b" cx="1" cy="1" r="1" transform="translate(4 15)"/><path class="b" d="M109.058,5a5.037,5.037,0,0,0-10.074.039.642.642,0,1,0,1.283,0,3.754,3.754,0,0,1,7.507,0q0,.017,0,.034a3.752,3.752,0,0,1-2.282,3.422,3.5,3.5,0,0,0-2.114,3.235v1.49a.642.642,0,1,0,1.283,0v-1.49A2.221,2.221,0,0,1,106,9.673a5.033,5.033,0,0,0,3.061-4.636C109.059,5.024,109.058,5.011,109.058,5Z" transform="translate(-98.984 0)"/></g></g></g></svg>