<svg xmlns="http://www.w3.org/2000/svg" fill="#C6C6C6" width="20.598" height="21.33" viewBox="0 0 20.598 21.33"><defs><style>.a{fill:#c6c6c6;}.b{fill:none;stroke:#c6c6c6;stroke-linecap:round;stroke-width:2px;}</style></defs><g transform="translate(-303 -337.137)"><g transform="translate(303 340.055)"><g transform="translate(8.771 6.236)"><g transform="translate(0 0)"><ellipse class="a" cx="1.569" cy="1.569" rx="1.569" ry="1.569"/></g></g><g transform="translate(5.753 3.218)"><g transform="translate(0 0)"><path class="a" d="M147.6,142a4.586,4.586,0,1,0,4.586,4.586A4.591,4.591,0,0,0,147.6,142Zm0,7.563a2.977,2.977,0,1,1,2.977-2.977A2.98,2.98,0,0,1,147.6,149.565Z" transform="translate(-143.014 -142.002)"/></g></g><g transform="translate(0 0)"><g transform="translate(0 0)"><path class="a" d="M20.076,68.051a15.553,15.553,0,0,0-3.595-3.807A10.236,10.236,0,0,0,10.317,62a10.289,10.289,0,0,0-6.17,2.235,15.664,15.664,0,0,0-3.617,3.8,3.214,3.214,0,0,0,0,3.535,15.663,15.663,0,0,0,3.617,3.8,10.289,10.289,0,0,0,6.17,2.235A11.159,11.159,0,0,0,17.757,74.3a.8.8,0,1,0-1.1-1.173A9.6,9.6,0,0,1,10.317,76c-3.906,0-7.145-3.339-8.443-5.312a1.606,1.606,0,0,1,0-1.766c1.3-1.973,4.536-5.312,8.443-5.312s7.125,3.342,8.411,5.317a1.61,1.61,0,0,1,0,1.756.8.8,0,1,0,1.348.878A3.22,3.22,0,0,0,20.076,68.051Z" transform="translate(0 -62.003)"/></g></g></g><line class="b" x1="10.516" y2="18.605" transform="translate(308.258 338.5)"/></g></svg>