<svg xmlns="http://www.w3.org/2000/svg" width="14.014" height="14.013" viewBox="0 0 14.014 14.013"><defs><style>.a{fill:rgba(255,255,255,0);stroke:rgba(177,177,177,0.87);}</style></defs><path class="a" d="M12.981,5.4a.386.386,0,0,0-.307-.272l-4.03-.614L6.842.683a.373.373,0,0,0-.683,0l-1.8,3.828-4.03.614A.386.386,0,0,0,.019,5.4a.413.413,0,0,0,.1.409l2.916,2.98-.688,4.208a.408.408,0,0,0,.152.391.366.366,0,0,0,.4.03l3.6-1.987,3.6,1.987a.366.366,0,0,0,.4-.03.409.409,0,0,0,.152-.391L9.969,8.786l2.916-2.98A.413.413,0,0,0,12.981,5.4Z" transform="translate(0.507 0.039)"/></svg>