<svg xmlns="http://www.w3.org/2000/svg" width="12" height="12" viewBox="0 0 12 12"><defs><style>.a{fill:rgba(0,0,0,0.23);}</style></defs><g transform="translate(0 0)"><path class="a" d="M1.425,8.31A4.869,4.869,0,1,1,8.311,1.424,4.775,4.775,0,0,1,9.043,7.3a.2.2,0,0,0,.028.244l2.484,2.484a1.135,1.135,0,0,1,.174,1.624l-.075.075a1.134,1.134,0,0,1-1.624-.174L7.55,9.076A.208.208,0,0,0,7.3,9.042,4.775,4.775,0,0,1,1.425,8.31Zm5.987-.9a3.6,3.6,0,1,0-5.088,0A3.6,3.6,0,0,0,7.412,7.411Z" transform="translate(-0.001 0)"/></g></svg>