<svg xmlns="http://www.w3.org/2000/svg" width="19.016" height="16.329" viewBox="0 0 19.016 16.329"><defs><style>.a{fill:#0079ff;}.b{fill:#f75454;}</style></defs><g transform="translate(0 0)"><g transform="translate(1.78 1.995)"><path class="a" d="M13.225,5.74A6.965,6.965,0,0,1,16.9,6.789a.368.368,0,0,0,.388-.626A7.729,7.729,0,0,0,6.14,15.822a.368.368,0,1,0,.674-.294A7,7,0,0,1,13.225,5.74Z" transform="translate(-5.497 -5.007)"/><path class="b" d="M44.288,29.488a6.911,6.911,0,0,1-.426,1.329.368.368,0,1,0,.674.294,7.666,7.666,0,0,0,.472-1.47.368.368,0,1,0-.72-.153Z" transform="translate(-29.723 -20.296)"/><path class="b" d="M45.919,22.5a7.774,7.774,0,0,0-.194-1.67.368.368,0,1,0-.718.163,7.037,7.037,0,0,1,.175,1.512.368.368,0,0,0,.368.365h0a.368.368,0,0,0,.365-.371Z" transform="translate(-30.464 -14.826)"/><path class="b" d="M42.162,13.159a.368.368,0,1,0-.589.442,7.015,7.015,0,0,1,.723,1.194.368.368,0,1,0,.665-.315,7.754,7.754,0,0,0-.8-1.32Z" transform="translate(-28.252 -10.066)"/><path d="M6.089,0a.29.29,0,0,0-.2.088L2.25,3.727a1.44,1.44,0,0,0-.8-.242A1.451,1.451,0,1,0,2.9,4.936a1.44,1.44,0,0,0-.242-.8L4.533,2.265,6.3.5A.29.29,0,0,0,6.089,0ZM1.451,4.066a.871.871,0,1,1-.871.871A.866.866,0,0,1,1.451,4.066Zm0,.145a.728.728,0,0,0-.726.726.145.145,0,1,0,.29,0v0A.433.433,0,0,1,1.451,4.5a.145.145,0,1,0,0-.29Z" transform="matrix(0.087, -0.996, 0.996, 0.087, 4.214, 9.783)"/></g><path d="M9.508,20.485A9.508,9.508,0,0,0,2.783,36.717a.328.328,0,0,0,.464-.463h0a8.854,8.854,0,1,1,12.521,0,.328.328,0,0,0,.463.464h0A9.508,9.508,0,0,0,9.508,20.485Z" transform="translate(0 -20.485)"/></g></svg>