<svg xmlns="http://www.w3.org/2000/svg" width="24" height="24" viewBox="0 0 24 24"><defs><style>.a{fill:rgba(60,60,67,0.3);}.b{fill:none;}</style></defs><g transform="translate(-274 -194)"><g transform="translate(291 203) rotate(90)"><g transform="translate(0 0)"><path class="a" d="M170.918,128.244a.875.875,0,0,1,1.212,0l4.286,4.167a.817.817,0,0,1,0,1.179l-4.286,4.167a.875.875,0,0,1-1.212,0,.817.817,0,0,1,0-1.178L174.6,133l-3.68-3.577A.817.817,0,0,1,170.918,128.244Z" transform="translate(-170.667 -128)"/></g></g><rect class="b" width="24" height="24" transform="translate(274 194)"/></g></svg>