<svg width="352" height="428" viewBox="0 0 352 428" fill="none" xmlns="http://www.w3.org/2000/svg">
<g opacity="0.9">
<rect x="43.3025" y="58.7549" width="6" height="6" rx="1" fill="white"/>
<rect x="43.3025" y="88.1324" width="6" height="6" rx="1" fill="white"/>
<rect x="43.3025" y="97.9249" width="6" height="6" rx="1" fill="white"/>
<rect x="43.3025" y="107.717" width="6" height="6" rx="1" fill="white"/>
<rect x="43.3025" y="117.51" width="6" height="6" rx="1" fill="white"/>
<rect x="43.3025" y="127.302" width="6" height="6" rx="1" fill="white"/>
<rect x="43.3025" y="137.095" width="6" height="6" rx="1" fill="white"/>
<rect x="43.3025" y="146.887" width="6" height="6" rx="1" fill="white"/>
<rect x="121.642" y="88.1324" width="6" height="6" rx="1" fill="white"/>
<rect x="121.642" y="97.9249" width="6" height="6" rx="1" fill="white"/>
<rect x="121.642" y="107.717" width="6" height="6" rx="1" fill="white"/>
<rect x="131.435" y="107.717" width="6" height="6" rx="1" fill="white"/>
<rect x="43.3025" y="48.9624" width="6" height="6" rx="1" fill="white"/>
<rect x="102.057" y="48.9624" width="6" height="6" rx="1" fill="white"/>
<rect x="43.3025" y="78.34" width="6" height="6" rx="1" fill="white"/>
<rect x="43.3025" y="39.17" width="6" height="6" rx="1" fill="white"/>
<rect x="102.057" y="39.17" width="6" height="6" rx="1" fill="white"/>
<rect x="141.227" y="39.17" width="6" height="6" rx="1" fill="white"/>
<rect x="102.057" y="29.3775" width="6" height="6" rx="1" fill="white"/>
<rect x="43.3025" y="68.5474" width="6" height="6" rx="1" fill="white"/>
<rect x="-5.66016" y="58.7549" width="6" height="6" rx="1" fill="white"/>
<rect x="-5.66016" y="88.1324" width="6" height="6" rx="1" fill="white"/>
<rect x="-5.66016" y="97.9249" width="6" height="6" rx="1" fill="white"/>
<rect x="-5.66016" y="107.717" width="6" height="6" rx="1" fill="white"/>
<rect x="-5.66016" y="117.51" width="6" height="6" rx="1" fill="white"/>
<rect x="-5.66016" y="127.302" width="6" height="6" rx="1" fill="white"/>
<rect x="-5.66016" y="137.095" width="6" height="6" rx="1" fill="white"/>
<rect x="-5.66016" y="146.887" width="6" height="6" rx="1" fill="white"/>
<rect x="-5.66016" y="156.68" width="6" height="6" rx="1" fill="white"/>
<rect x="-5.66016" y="166.472" width="6" height="6" rx="1" fill="white"/>
<rect x="-5.66016" y="176.265" width="6" height="6" rx="1" fill="white"/>
<rect x="-5.66016" y="186.057" width="6" height="6" rx="1" fill="white"/>
<rect x="-5.66016" y="48.9624" width="6" height="6" rx="1" fill="white"/>
<rect x="-5.66016" y="78.34" width="6" height="6" rx="1" fill="white"/>
<rect x="-5.66016" y="39.17" width="6" height="6" rx="1" fill="white"/>
<rect x="-5.66016" y="68.5474" width="6" height="6" rx="1" fill="white"/>
<rect x="-5.66016" y="29.3775" width="6" height="6" rx="1" fill="white"/>
<rect x="53.0947" y="58.7549" width="6" height="6" rx="1" fill="white"/>
<rect x="53.0947" y="88.1324" width="6" height="6" rx="1" fill="white"/>
<rect x="53.0947" y="97.9249" width="6" height="6" rx="1" fill="white"/>
<rect x="53.0947" y="107.717" width="6" height="6" rx="1" fill="white"/>
<rect x="53.0947" y="117.51" width="6" height="6" rx="1" fill="white"/>
<rect x="53.0947" y="127.302" width="6" height="6" rx="1" fill="white"/>
<rect x="53.0947" y="137.095" width="6" height="6" rx="1" fill="white"/>
<rect x="53.0947" y="146.887" width="6" height="6" rx="1" fill="white"/>
<rect x="131.435" y="88.1324" width="6" height="6" rx="1" fill="white"/>
<rect x="53.0947" y="48.9624" width="6" height="6" rx="1" fill="white"/>
<rect x="53.0947" y="78.34" width="6" height="6" rx="1" fill="white"/>
<rect x="102.057" y="78.34" width="6" height="6" rx="1" fill="white"/>
<rect x="53.0947" y="39.17" width="6" height="6" rx="1" fill="white"/>
<rect x="111.85" y="39.17" width="6" height="6" rx="1" fill="white"/>
<rect x="151.02" y="39.17" width="6" height="6" rx="1" fill="white"/>
<rect x="53.0947" y="68.5474" width="6" height="6" rx="1" fill="white"/>
<rect x="4.13232" y="58.7549" width="6" height="6" rx="1" fill="white"/>
<rect x="4.13232" y="88.1324" width="6" height="6" rx="1" fill="white"/>
<rect x="4.13232" y="97.9249" width="6" height="6" rx="1" fill="white"/>
<rect x="4.13232" y="107.717" width="6" height="6" rx="1" fill="white"/>
<rect x="4.13232" y="117.51" width="6" height="6" rx="1" fill="white"/>
<rect x="4.13232" y="127.302" width="6" height="6" rx="1" fill="white"/>
<rect x="4.13232" y="137.095" width="6" height="6" rx="1" fill="white"/>
<rect x="4.13232" y="146.887" width="6" height="6" rx="1" fill="white"/>
<rect x="4.13232" y="156.68" width="6" height="6" rx="1" fill="white"/>
<rect x="4.13232" y="166.472" width="6" height="6" rx="1" fill="white"/>
<rect x="4.13232" y="176.265" width="6" height="6" rx="1" fill="white"/>
<rect x="4.13232" y="186.057" width="6" height="6" rx="1" fill="white"/>
<rect x="23.7174" y="195.85" width="6" height="6" rx="1" fill="white"/>
<rect x="43.3025" y="195.85" width="6" height="6" rx="1" fill="white"/>
<rect x="43.3025" y="205.642" width="6" height="6" rx="1" fill="white"/>
<rect x="43.3025" y="215.435" width="6" height="6" rx="1" fill="white"/>
<rect x="270.755" y="156.68" width="6" height="6" rx="1" fill="white"/>
<rect x="319.718" y="39.17" width="6" height="6" rx="1" fill="white"/>
<rect x="270.755" y="146.887" width="6" height="6" rx="1" fill="white"/>
<rect x="270.755" y="137.095" width="6" height="6" rx="1" fill="white"/>
<rect x="280.548" y="156.68" width="6" height="6" rx="1" fill="white"/>
<rect x="329.51" y="39.17" width="6" height="6" rx="1" fill="white"/>
<rect x="280.548" y="146.887" width="6" height="6" rx="1" fill="white"/>
<rect x="280.548" y="137.095" width="6" height="6" rx="1" fill="white"/>
<rect x="53.0947" y="225.227" width="6" height="6" rx="1" fill="white"/>
<rect x="280.548" y="166.472" width="6" height="6" rx="1" fill="white"/>
<rect x="329.51" y="48.9624" width="6" height="6" rx="1" fill="white"/>
<rect x="290.34" y="166.472" width="6" height="6" rx="1" fill="white"/>
<rect x="339.303" y="48.9624" width="6" height="6" rx="1" fill="white"/>
<rect x="290.34" y="156.68" width="6" height="6" rx="1" fill="white"/>
<rect x="339.303" y="39.17" width="6" height="6" rx="1" fill="white"/>
<rect x="339.303" y="29.3775" width="6" height="6" rx="1" fill="white"/>
<rect x="290.34" y="146.887" width="6" height="6" rx="1" fill="white"/>
<rect x="290.34" y="137.095" width="6" height="6" rx="1" fill="white"/>
<rect x="290.34" y="176.265" width="6" height="6" rx="1" fill="white"/>
<rect x="339.303" y="58.7549" width="6" height="6" rx="1" fill="white"/>
<rect x="72.6799" y="225.227" width="6" height="6" rx="1" fill="white"/>
<rect x="300.133" y="166.472" width="6" height="6" rx="1" fill="white"/>
<rect x="349.095" y="48.9624" width="6" height="6" rx="1" fill="white"/>
<rect x="72.6799" y="235.02" width="6" height="6" rx="1" fill="white"/>
<rect x="300.133" y="176.265" width="6" height="6" rx="1" fill="white"/>
<rect x="349.095" y="58.7549" width="6" height="6" rx="1" fill="white"/>
<rect x="92.2649" y="293.775" width="6" height="6" rx="1" fill="white"/>
<rect x="319.718" y="235.02" width="6" height="6" rx="1" fill="white"/>
<rect x="72.6799" y="244.812" width="6" height="6" rx="1" fill="white"/>
<rect x="300.133" y="186.057" width="6" height="6" rx="1" fill="white"/>
<rect x="349.095" y="68.5474" width="6" height="6" rx="1" fill="white"/>
<rect x="241.378" y="186.057" width="6" height="6" rx="1" fill="white"/>
<rect x="241.378" y="176.265" width="6" height="6" rx="1" fill="white"/>
<rect x="92.2649" y="303.567" width="6" height="6" rx="1" fill="white"/>
<rect x="319.718" y="244.812" width="6" height="6" rx="1" fill="white"/>
<rect x="309.925" y="244.812" width="6" height="6" rx="1" fill="white"/>
<rect x="72.6799" y="254.605" width="6" height="6" rx="1" fill="white"/>
<rect x="300.133" y="195.85" width="6" height="6" rx="1" fill="white"/>
<rect x="349.095" y="78.34" width="6" height="6" rx="1" fill="white"/>
<rect x="241.378" y="195.85" width="6" height="6" rx="1" fill="white"/>
<rect x="92.2649" y="313.36" width="6" height="6" rx="1" fill="white"/>
<rect x="319.718" y="254.605" width="6" height="6" rx="1" fill="white"/>
<rect x="309.925" y="254.605" width="6" height="6" rx="1" fill="white"/>
<rect x="92.2649" y="362.322" width="6" height="6" rx="1" fill="white"/>
<rect x="319.718" y="303.567" width="6" height="6" rx="1" fill="white"/>
<rect x="349.095" y="303.567" width="6" height="6" rx="1" fill="white"/>
<rect x="72.6799" y="264.397" width="6" height="6" rx="1" fill="white"/>
<rect x="300.133" y="205.642" width="6" height="6" rx="1" fill="white"/>
<rect x="349.095" y="88.1324" width="6" height="6" rx="1" fill="white"/>
<rect x="241.378" y="205.642" width="6" height="6" rx="1" fill="white"/>
<rect x="280.548" y="88.1324" width="6" height="6" rx="1" fill="white"/>
<rect x="280.548" y="78.34" width="6" height="6" rx="1" fill="white"/>
<rect x="260.963" y="78.34" width="6" height="6" rx="1" fill="white"/>
<rect x="290.34" y="78.34" width="6" height="6" rx="1" fill="white"/>
<rect x="280.548" y="68.5474" width="6" height="6" rx="1" fill="white"/>
<rect x="290.34" y="97.9249" width="6" height="6" rx="1" fill="white"/>
<rect x="280.548" y="97.9249" width="6" height="6" rx="1" fill="white"/>
<rect x="290.34" y="107.717" width="6" height="6" rx="1" fill="white"/>
<rect x="290.34" y="117.51" width="6" height="6" rx="1" fill="white"/>
<rect x="280.548" y="117.51" width="6" height="6" rx="1" fill="white"/>
<rect x="270.755" y="117.51" width="6" height="6" rx="1" fill="white"/>
<rect x="260.963" y="117.51" width="6" height="6" rx="1" fill="white"/>
<rect x="260.963" y="127.302" width="6" height="6" rx="1" fill="white"/>
<rect x="270.755" y="127.302" width="6" height="6" rx="1" fill="white"/>
<rect x="280.548" y="127.302" width="6" height="6" rx="1" fill="white"/>
<rect x="92.2649" y="323.152" width="6" height="6" rx="1" fill="white"/>
<rect x="319.718" y="264.397" width="6" height="6" rx="1" fill="white"/>
<rect x="72.6799" y="274.19" width="6" height="6" rx="1" fill="white"/>
<rect x="300.133" y="215.435" width="6" height="6" rx="1" fill="white"/>
<rect x="349.095" y="97.9249" width="6" height="6" rx="1" fill="white"/>
<rect x="92.2649" y="332.945" width="6" height="6" rx="1" fill="white"/>
<rect x="319.718" y="274.19" width="6" height="6" rx="1" fill="white"/>
<rect x="72.6799" y="283.982" width="6" height="6" rx="1" fill="white"/>
<rect x="300.133" y="225.227" width="6" height="6" rx="1" fill="white"/>
<rect x="349.095" y="107.717" width="6" height="6" rx="1" fill="white"/>
<rect x="92.2649" y="342.737" width="6" height="6" rx="1" fill="white"/>
<rect x="319.718" y="283.982" width="6" height="6" rx="1" fill="white"/>
<rect x="349.095" y="283.982" width="6" height="6" rx="1" fill="white"/>
<rect x="62.8873" y="244.812" width="6" height="6" rx="1" fill="white"/>
<rect x="290.34" y="186.057" width="6" height="6" rx="1" fill="white"/>
<rect x="339.303" y="68.5474" width="6" height="6" rx="1" fill="white"/>
<rect x="82.4723" y="293.775" width="6" height="6" rx="1" fill="white"/>
<rect x="309.925" y="235.02" width="6" height="6" rx="1" fill="white"/>
<rect x="62.8873" y="254.605" width="6" height="6" rx="1" fill="white"/>
<rect x="290.34" y="195.85" width="6" height="6" rx="1" fill="white"/>
<rect x="339.303" y="78.34" width="6" height="6" rx="1" fill="white"/>
<rect x="290.34" y="215.435" width="6" height="6" rx="1" fill="white"/>
<rect x="339.303" y="97.9249" width="6" height="6" rx="1" fill="white"/>
<rect x="62.8873" y="264.397" width="6" height="6" rx="1" fill="white"/>
<rect x="290.34" y="205.642" width="6" height="6" rx="1" fill="white"/>
<rect x="339.303" y="88.1324" width="6" height="6" rx="1" fill="white"/>
<rect x="290.34" y="225.227" width="6" height="6" rx="1" fill="white"/>
<rect x="339.303" y="107.717" width="6" height="6" rx="1" fill="white"/>
<rect x="72.6799" y="215.435" width="6" height="6" rx="1" fill="white"/>
<rect x="300.133" y="156.68" width="6" height="6" rx="1" fill="white"/>
<rect x="349.095" y="39.17" width="6" height="6" rx="1" fill="white"/>
<rect x="349.095" y="29.3775" width="6" height="6" rx="1" fill="white"/>
<rect x="300.133" y="146.887" width="6" height="6" rx="1" fill="white"/>
<rect x="300.133" y="137.095" width="6" height="6" rx="1" fill="white"/>
<rect x="82.4723" y="225.227" width="6" height="6" rx="1" fill="white"/>
<rect x="309.925" y="166.472" width="6" height="6" rx="1" fill="white"/>
<rect x="82.4723" y="235.02" width="6" height="6" rx="1" fill="white"/>
<rect x="309.925" y="176.265" width="6" height="6" rx="1" fill="white"/>
<rect x="102.057" y="293.775" width="6" height="6" rx="1" fill="white"/>
<rect x="329.51" y="235.02" width="6" height="6" rx="1" fill="white"/>
<rect x="82.4723" y="244.812" width="6" height="6" rx="1" fill="white"/>
<rect x="309.925" y="186.057" width="6" height="6" rx="1" fill="white"/>
<rect x="251.17" y="186.057" width="6" height="6" rx="1" fill="white"/>
<rect x="300.133" y="68.5474" width="6" height="6" rx="1" fill="white"/>
<rect x="251.17" y="176.265" width="6" height="6" rx="1" fill="white"/>
<rect x="300.133" y="58.7549" width="6" height="6" rx="1" fill="white"/>
<rect x="251.17" y="166.472" width="6" height="6" rx="1" fill="white"/>
<rect x="251.17" y="156.68" width="6" height="6" rx="1" fill="white"/>
<rect x="102.057" y="303.567" width="6" height="6" rx="1" fill="white"/>
<rect x="329.51" y="244.812" width="6" height="6" rx="1" fill="white"/>
<rect x="102.057" y="352.53" width="6" height="6" rx="1" fill="white"/>
<rect x="329.51" y="293.775" width="6" height="6" rx="1" fill="white"/>
<rect x="319.718" y="293.775" width="6" height="6" rx="1" fill="white"/>
<rect x="82.4723" y="254.605" width="6" height="6" rx="1" fill="white"/>
<rect x="309.925" y="195.85" width="6" height="6" rx="1" fill="white"/>
<rect x="251.17" y="195.85" width="6" height="6" rx="1" fill="white"/>
<rect x="102.057" y="313.36" width="6" height="6" rx="1" fill="white"/>
<rect x="329.51" y="254.605" width="6" height="6" rx="1" fill="white"/>
<rect x="102.057" y="362.322" width="6" height="6" rx="1" fill="white"/>
<rect x="329.51" y="303.567" width="6" height="6" rx="1" fill="white"/>
<rect x="82.4723" y="264.397" width="6" height="6" rx="1" fill="white"/>
<rect x="309.925" y="205.642" width="6" height="6" rx="1" fill="white"/>
<rect x="251.17" y="205.642" width="6" height="6" rx="1" fill="white"/>
<rect x="300.133" y="88.1324" width="6" height="6" rx="1" fill="white"/>
<rect x="251.17" y="215.435" width="6" height="6" rx="1" fill="white"/>
<rect x="300.133" y="97.9249" width="6" height="6" rx="1" fill="white"/>
<rect x="251.17" y="225.227" width="6" height="6" rx="1" fill="white"/>
<rect x="300.133" y="107.717" width="6" height="6" rx="1" fill="white"/>
<rect x="102.057" y="323.152" width="6" height="6" rx="1" fill="white"/>
<rect x="329.51" y="264.397" width="6" height="6" rx="1" fill="white"/>
<rect x="102.057" y="372.115" width="6" height="6" rx="1" fill="white"/>
<rect x="329.51" y="313.36" width="6" height="6" rx="1" fill="white"/>
<rect x="319.718" y="313.36" width="6" height="6" rx="1" fill="white"/>
<rect x="82.4723" y="274.19" width="6" height="6" rx="1" fill="white"/>
<rect x="309.925" y="215.435" width="6" height="6" rx="1" fill="white"/>
<rect x="102.057" y="332.945" width="6" height="6" rx="1" fill="white"/>
<rect x="329.51" y="274.19" width="6" height="6" rx="1" fill="white"/>
<rect x="102.057" y="381.907" width="6" height="6" rx="1" fill="white"/>
<rect x="329.51" y="323.152" width="6" height="6" rx="1" fill="white"/>
<rect x="82.4723" y="283.982" width="6" height="6" rx="1" fill="white"/>
<rect x="309.925" y="225.227" width="6" height="6" rx="1" fill="white"/>
<rect x="102.057" y="342.737" width="6" height="6" rx="1" fill="white"/>
<rect x="329.51" y="283.982" width="6" height="6" rx="1" fill="white"/>
<rect x="82.4723" y="215.435" width="6" height="6" rx="1" fill="white"/>
<rect x="309.925" y="156.68" width="6" height="6" rx="1" fill="white"/>
<rect x="309.925" y="146.887" width="6" height="6" rx="1" fill="white"/>
<rect x="309.925" y="137.095" width="6" height="6" rx="1" fill="white"/>
<rect x="82.4723" y="205.642" width="6" height="6" rx="1" fill="white"/>
<rect x="82.4723" y="186.057" width="6" height="6" rx="1" fill="white"/>
<rect x="72.6799" y="176.265" width="6" height="6" rx="1" fill="white"/>
<rect x="92.2649" y="186.057" width="6" height="6" rx="1" fill="white"/>
<rect x="92.2649" y="225.227" width="6" height="6" rx="1" fill="white"/>
<rect x="319.718" y="166.472" width="6" height="6" rx="1" fill="white"/>
<rect x="349.095" y="166.472" width="6" height="6" rx="1" fill="white"/>
<rect x="92.2649" y="235.02" width="6" height="6" rx="1" fill="white"/>
<rect x="319.718" y="176.265" width="6" height="6" rx="1" fill="white"/>
<rect x="111.85" y="293.775" width="6" height="6" rx="1" fill="white"/>
<rect x="339.303" y="235.02" width="6" height="6" rx="1" fill="white"/>
<rect x="92.2649" y="244.812" width="6" height="6" rx="1" fill="white"/>
<rect x="319.718" y="186.057" width="6" height="6" rx="1" fill="white"/>
<rect x="260.963" y="186.057" width="6" height="6" rx="1" fill="white"/>
<rect x="309.925" y="68.5474" width="6" height="6" rx="1" fill="white"/>
<rect x="260.963" y="176.265" width="6" height="6" rx="1" fill="white"/>
<rect x="309.925" y="58.7549" width="6" height="6" rx="1" fill="white"/>
<rect x="260.963" y="166.472" width="6" height="6" rx="1" fill="white"/>
<rect x="309.925" y="48.9624" width="6" height="6" rx="1" fill="white"/>
<rect x="260.963" y="156.68" width="6" height="6" rx="1" fill="white"/>
<rect x="260.963" y="146.887" width="6" height="6" rx="1" fill="white"/>
<rect x="111.85" y="303.567" width="6" height="6" rx="1" fill="white"/>
<rect x="339.303" y="244.812" width="6" height="6" rx="1" fill="white"/>
<rect x="111.85" y="352.53" width="6" height="6" rx="1" fill="white"/>
<rect x="339.303" y="293.775" width="6" height="6" rx="1" fill="white"/>
<rect x="92.2649" y="254.605" width="6" height="6" rx="1" fill="white"/>
<rect x="319.718" y="195.85" width="6" height="6" rx="1" fill="white"/>
<rect x="260.963" y="195.85" width="6" height="6" rx="1" fill="white"/>
<rect x="309.925" y="78.34" width="6" height="6" rx="1" fill="white"/>
<rect x="111.85" y="313.36" width="6" height="6" rx="1" fill="white"/>
<rect x="339.303" y="254.605" width="6" height="6" rx="1" fill="white"/>
<rect x="111.85" y="362.322" width="6" height="6" rx="1" fill="white"/>
<rect x="339.303" y="303.567" width="6" height="6" rx="1" fill="white"/>
<rect x="92.2649" y="264.397" width="6" height="6" rx="1" fill="white"/>
<rect x="319.718" y="205.642" width="6" height="6" rx="1" fill="white"/>
<rect x="260.963" y="205.642" width="6" height="6" rx="1" fill="white"/>
<rect x="309.925" y="88.1324" width="6" height="6" rx="1" fill="white"/>
<rect x="260.963" y="215.435" width="6" height="6" rx="1" fill="white"/>
<rect x="309.925" y="97.9249" width="6" height="6" rx="1" fill="white"/>
<rect x="260.963" y="225.227" width="6" height="6" rx="1" fill="white"/>
<rect x="309.925" y="107.717" width="6" height="6" rx="1" fill="white"/>
<rect x="111.85" y="323.152" width="6" height="6" rx="1" fill="white"/>
<rect x="339.303" y="264.397" width="6" height="6" rx="1" fill="white"/>
<rect x="111.85" y="372.115" width="6" height="6" rx="1" fill="white"/>
<rect x="339.303" y="313.36" width="6" height="6" rx="1" fill="white"/>
<rect x="92.2649" y="274.19" width="6" height="6" rx="1" fill="white"/>
<rect x="319.718" y="215.435" width="6" height="6" rx="1" fill="white"/>
<rect x="111.85" y="332.945" width="6" height="6" rx="1" fill="white"/>
<rect x="339.303" y="274.19" width="6" height="6" rx="1" fill="white"/>
<rect x="111.85" y="381.907" width="6" height="6" rx="1" fill="white"/>
<rect x="339.303" y="323.152" width="6" height="6" rx="1" fill="white"/>
<rect x="92.2649" y="283.982" width="6" height="6" rx="1" fill="white"/>
<rect x="319.718" y="225.227" width="6" height="6" rx="1" fill="white"/>
<rect x="111.85" y="342.737" width="6" height="6" rx="1" fill="white"/>
<rect x="339.303" y="283.982" width="6" height="6" rx="1" fill="white"/>
<rect x="111.85" y="391.7" width="6" height="6" rx="1" fill="white"/>
<rect x="339.303" y="332.945" width="6" height="6" rx="1" fill="white"/>
<rect x="111.85" y="401.492" width="6" height="6" rx="1" fill="white"/>
<rect x="339.303" y="342.737" width="6" height="6" rx="1" fill="white"/>
<rect x="111.85" y="411.285" width="6" height="6" rx="1" fill="white"/>
<rect x="339.303" y="352.53" width="6" height="6" rx="1" fill="white"/>
<rect x="102.057" y="391.7" width="6" height="6" rx="1" fill="white"/>
<rect x="329.51" y="332.945" width="6" height="6" rx="1" fill="white"/>
<rect x="92.2649" y="215.435" width="6" height="6" rx="1" fill="white"/>
<rect x="319.718" y="156.68" width="6" height="6" rx="1" fill="white"/>
<rect x="319.718" y="146.887" width="6" height="6" rx="1" fill="white"/>
<rect x="349.095" y="156.68" width="6" height="6" rx="1" fill="white"/>
<rect x="349.095" y="146.887" width="6" height="6" rx="1" fill="white"/>
<rect x="102.057" y="225.227" width="6" height="6" rx="1" fill="white"/>
<rect x="329.51" y="166.472" width="6" height="6" rx="1" fill="white"/>
<rect x="102.057" y="235.02" width="6" height="6" rx="1" fill="white"/>
<rect x="329.51" y="176.265" width="6" height="6" rx="1" fill="white"/>
<rect x="121.642" y="293.775" width="6" height="6" rx="1" fill="white"/>
<rect x="349.095" y="235.02" width="6" height="6" rx="1" fill="white"/>
<rect x="102.057" y="244.812" width="6" height="6" rx="1" fill="white"/>
<rect x="329.51" y="186.057" width="6" height="6" rx="1" fill="white"/>
<rect x="270.755" y="186.057" width="6" height="6" rx="1" fill="white"/>
<rect x="319.718" y="68.5474" width="6" height="6" rx="1" fill="white"/>
<rect x="270.755" y="176.265" width="6" height="6" rx="1" fill="white"/>
<rect x="319.718" y="58.7549" width="6" height="6" rx="1" fill="white"/>
<rect x="270.755" y="166.472" width="6" height="6" rx="1" fill="white"/>
<rect x="319.718" y="48.9624" width="6" height="6" rx="1" fill="white"/>
<rect x="121.642" y="303.567" width="6" height="6" rx="1" fill="white"/>
<rect x="349.095" y="244.812" width="6" height="6" rx="1" fill="white"/>
<rect x="121.642" y="352.53" width="6" height="6" rx="1" fill="white"/>
<rect x="349.095" y="293.775" width="6" height="6" rx="1" fill="white"/>
<rect x="102.057" y="254.605" width="6" height="6" rx="1" fill="white"/>
<rect x="329.51" y="195.85" width="6" height="6" rx="1" fill="white"/>
<rect x="270.755" y="195.85" width="6" height="6" rx="1" fill="white"/>
<rect x="319.718" y="78.34" width="6" height="6" rx="1" fill="white"/>
<rect x="121.642" y="313.36" width="6" height="6" rx="1" fill="white"/>
<rect x="349.095" y="254.605" width="6" height="6" rx="1" fill="white"/>
<rect x="121.642" y="362.322" width="6" height="6" rx="1" fill="white"/>
<rect x="102.057" y="264.397" width="6" height="6" rx="1" fill="white"/>
<rect x="329.51" y="205.642" width="6" height="6" rx="1" fill="white"/>
<rect x="270.755" y="205.642" width="6" height="6" rx="1" fill="white"/>
<rect x="319.718" y="88.1324" width="6" height="6" rx="1" fill="white"/>
<rect x="270.755" y="215.435" width="6" height="6" rx="1" fill="white"/>
<rect x="319.718" y="97.9249" width="6" height="6" rx="1" fill="white"/>
<rect x="270.755" y="225.227" width="6" height="6" rx="1" fill="white"/>
<rect x="319.718" y="107.717" width="6" height="6" rx="1" fill="white"/>
<rect x="319.718" y="117.51" width="6" height="6" rx="1" fill="white"/>
<rect x="319.718" y="127.302" width="6" height="6" rx="1" fill="white"/>
<rect x="339.303" y="127.302" width="6" height="6" rx="1" fill="white"/>
<rect x="339.303" y="117.51" width="6" height="6" rx="1" fill="white"/>
<rect x="349.095" y="117.51" width="6" height="6" rx="1" fill="white"/>
<rect x="121.642" y="323.152" width="6" height="6" rx="1" fill="white"/>
<rect x="349.095" y="264.397" width="6" height="6" rx="1" fill="white"/>
<rect x="121.642" y="372.115" width="6" height="6" rx="1" fill="white"/>
<rect x="349.095" y="313.36" width="6" height="6" rx="1" fill="white"/>
<rect x="102.057" y="274.19" width="6" height="6" rx="1" fill="white"/>
<rect x="329.51" y="215.435" width="6" height="6" rx="1" fill="white"/>
<rect x="121.642" y="332.945" width="6" height="6" rx="1" fill="white"/>
<rect x="349.095" y="274.19" width="6" height="6" rx="1" fill="white"/>
<rect x="121.642" y="381.907" width="6" height="6" rx="1" fill="white"/>
<rect x="349.095" y="323.152" width="6" height="6" rx="1" fill="white"/>
<rect x="102.057" y="283.982" width="6" height="6" rx="1" fill="white"/>
<rect x="329.51" y="225.227" width="6" height="6" rx="1" fill="white"/>
<rect x="121.642" y="342.737" width="6" height="6" rx="1" fill="white"/>
<rect x="121.642" y="391.7" width="6" height="6" rx="1" fill="white"/>
<rect x="349.095" y="332.945" width="6" height="6" rx="1" fill="white"/>
<rect x="121.642" y="401.492" width="6" height="6" rx="1" fill="white"/>
<rect x="349.095" y="342.737" width="6" height="6" rx="1" fill="white"/>
<rect x="121.642" y="411.285" width="6" height="6" rx="1" fill="white"/>
<rect x="349.095" y="352.53" width="6" height="6" rx="1" fill="white"/>
<rect x="131.435" y="421.077" width="6" height="6" rx="1" fill="white"/>
<rect x="102.057" y="215.435" width="6" height="6" rx="1" fill="white"/>
<rect x="329.51" y="156.68" width="6" height="6" rx="1" fill="white"/>
<rect x="111.85" y="225.227" width="6" height="6" rx="1" fill="white"/>
<rect x="339.303" y="166.472" width="6" height="6" rx="1" fill="white"/>
<rect x="111.85" y="235.02" width="6" height="6" rx="1" fill="white"/>
<rect x="339.303" y="176.265" width="6" height="6" rx="1" fill="white"/>
<rect x="131.435" y="293.775" width="6" height="6" rx="1" fill="white"/>
<rect x="111.85" y="244.812" width="6" height="6" rx="1" fill="white"/>
<rect x="339.303" y="186.057" width="6" height="6" rx="1" fill="white"/>
<rect x="280.548" y="186.057" width="6" height="6" rx="1" fill="white"/>
<rect x="280.548" y="176.265" width="6" height="6" rx="1" fill="white"/>
<rect x="131.435" y="303.567" width="6" height="6" rx="1" fill="white"/>
<rect x="131.435" y="352.53" width="6" height="6" rx="1" fill="white"/>
<rect x="111.85" y="254.605" width="6" height="6" rx="1" fill="white"/>
<rect x="339.303" y="195.85" width="6" height="6" rx="1" fill="white"/>
<rect x="280.548" y="195.85" width="6" height="6" rx="1" fill="white"/>
<rect x="329.51" y="78.34" width="6" height="6" rx="1" fill="white"/>
<rect x="131.435" y="313.36" width="6" height="6" rx="1" fill="white"/>
<rect x="131.435" y="362.322" width="6" height="6" rx="1" fill="white"/>
<rect x="111.85" y="264.397" width="6" height="6" rx="1" fill="white"/>
<rect x="339.303" y="205.642" width="6" height="6" rx="1" fill="white"/>
<rect x="280.548" y="205.642" width="6" height="6" rx="1" fill="white"/>
<rect x="329.51" y="88.1324" width="6" height="6" rx="1" fill="white"/>
<rect x="280.548" y="215.435" width="6" height="6" rx="1" fill="white"/>
<rect x="329.51" y="97.9249" width="6" height="6" rx="1" fill="white"/>
<rect x="280.548" y="225.227" width="6" height="6" rx="1" fill="white"/>
<rect x="329.51" y="107.717" width="6" height="6" rx="1" fill="white"/>
<rect x="131.435" y="323.152" width="6" height="6" rx="1" fill="white"/>
<rect x="111.85" y="274.19" width="6" height="6" rx="1" fill="white"/>
<rect x="339.303" y="215.435" width="6" height="6" rx="1" fill="white"/>
<rect x="131.435" y="332.945" width="6" height="6" rx="1" fill="white"/>
<rect x="111.85" y="283.982" width="6" height="6" rx="1" fill="white"/>
<rect x="339.303" y="225.227" width="6" height="6" rx="1" fill="white"/>
<rect x="131.435" y="342.737" width="6" height="6" rx="1" fill="white"/>
<rect x="121.642" y="235.02" width="6" height="6" rx="1" fill="white"/>
<rect x="349.095" y="176.265" width="6" height="6" rx="1" fill="white"/>
<rect x="141.227" y="293.775" width="6" height="6" rx="1" fill="white"/>
<rect x="121.642" y="244.812" width="6" height="6" rx="1" fill="white"/>
<rect x="349.095" y="186.057" width="6" height="6" rx="1" fill="white"/>
<rect x="141.227" y="303.567" width="6" height="6" rx="1" fill="white"/>
<rect x="141.227" y="352.53" width="6" height="6" rx="1" fill="white"/>
<rect x="121.642" y="254.605" width="6" height="6" rx="1" fill="white"/>
<rect x="349.095" y="195.85" width="6" height="6" rx="1" fill="white"/>
<rect x="141.227" y="313.36" width="6" height="6" rx="1" fill="white"/>
<rect x="121.642" y="264.397" width="6" height="6" rx="1" fill="white"/>
<rect x="349.095" y="205.642" width="6" height="6" rx="1" fill="white"/>
<rect x="141.227" y="323.152" width="6" height="6" rx="1" fill="white"/>
<rect x="121.642" y="274.19" width="6" height="6" rx="1" fill="white"/>
<rect x="349.095" y="215.435" width="6" height="6" rx="1" fill="white"/>
<rect x="141.227" y="332.945" width="6" height="6" rx="1" fill="white"/>
<rect x="121.642" y="283.982" width="6" height="6" rx="1" fill="white"/>
<rect x="349.095" y="225.227" width="6" height="6" rx="1" fill="white"/>
<rect x="141.227" y="342.737" width="6" height="6" rx="1" fill="white"/>
<rect x="131.435" y="235.02" width="6" height="6" rx="1" fill="white"/>
<rect x="151.02" y="293.775" width="6" height="6" rx="1" fill="white"/>
<rect x="131.435" y="244.812" width="6" height="6" rx="1" fill="white"/>
<rect x="151.02" y="303.567" width="6" height="6" rx="1" fill="white"/>
<rect x="131.435" y="254.605" width="6" height="6" rx="1" fill="white"/>
<rect x="151.02" y="313.36" width="6" height="6" rx="1" fill="white"/>
<rect x="131.435" y="264.397" width="6" height="6" rx="1" fill="white"/>
<rect x="151.02" y="323.152" width="6" height="6" rx="1" fill="white"/>
<rect x="131.435" y="274.19" width="6" height="6" rx="1" fill="white"/>
<rect x="151.02" y="332.945" width="6" height="6" rx="1" fill="white"/>
<rect x="131.435" y="283.982" width="6" height="6" rx="1" fill="white"/>
<rect x="141.227" y="244.812" width="6" height="6" rx="1" fill="white"/>
<rect x="160.812" y="303.567" width="6" height="6" rx="1" fill="white"/>
<rect x="160.812" y="293.775" width="6" height="6" rx="1" fill="white"/>
<rect x="170.605" y="293.775" width="6" height="6" rx="1" fill="white"/>
<rect x="141.227" y="254.605" width="6" height="6" rx="1" fill="white"/>
<rect x="160.812" y="313.36" width="6" height="6" rx="1" fill="white"/>
<rect x="141.227" y="264.397" width="6" height="6" rx="1" fill="white"/>
<rect x="141.227" y="274.19" width="6" height="6" rx="1" fill="white"/>
<rect x="141.227" y="283.982" width="6" height="6" rx="1" fill="white"/>
<rect x="151.02" y="254.605" width="6" height="6" rx="1" fill="white"/>
<rect x="170.605" y="313.36" width="6" height="6" rx="1" fill="white"/>
<rect x="170.605" y="303.567" width="6" height="6" rx="1" fill="white"/>
<rect x="151.02" y="264.397" width="6" height="6" rx="1" fill="white"/>
<rect x="151.02" y="274.19" width="6" height="6" rx="1" fill="white"/>
<rect x="151.02" y="283.982" width="6" height="6" rx="1" fill="white"/>
<rect x="160.812" y="254.605" width="6" height="6" rx="1" fill="white"/>
<rect x="160.812" y="264.397" width="6" height="6" rx="1" fill="white"/>
<rect x="160.812" y="274.19" width="6" height="6" rx="1" fill="white"/>
<rect x="160.812" y="283.982" width="6" height="6" rx="1" fill="white"/>
<rect x="170.605" y="264.397" width="6" height="6" rx="1" fill="white"/>
<rect x="170.605" y="274.19" width="6" height="6" rx="1" fill="white"/>
<rect x="170.605" y="283.982" width="6" height="6" rx="1" fill="white"/>
<rect x="180.397" y="264.397" width="6" height="6" rx="1" fill="white"/>
<rect x="180.397" y="274.19" width="6" height="6" rx="1" fill="white"/>
<rect x="111.85" y="215.435" width="6" height="6" rx="1" fill="white"/>
<rect x="339.303" y="156.68" width="6" height="6" rx="1" fill="white"/>
<rect x="339.303" y="146.887" width="6" height="6" rx="1" fill="white"/>
<rect x="53.0947" y="205.642" width="6" height="6" rx="1" fill="white"/>
<rect x="43.3025" y="186.057" width="6" height="6" rx="1" fill="white"/>
<rect x="43.3025" y="176.265" width="6" height="6" rx="1" fill="white"/>
<rect x="82.4723" y="88.1324" width="6" height="6" rx="1" fill="white"/>
<rect x="82.4723" y="97.9249" width="6" height="6" rx="1" fill="white"/>
<rect x="82.4723" y="107.717" width="6" height="6" rx="1" fill="white"/>
<rect x="82.4723" y="117.51" width="6" height="6" rx="1" fill="white"/>
<rect x="82.4723" y="127.302" width="6" height="6" rx="1" fill="white"/>
<rect x="82.4723" y="137.095" width="6" height="6" rx="1" fill="white"/>
<rect x="4.13232" y="48.9624" width="6" height="6" rx="1" fill="white"/>
<rect x="4.13232" y="78.34" width="6" height="6" rx="1" fill="white"/>
<rect x="4.13232" y="39.17" width="6" height="6" rx="1" fill="white"/>
<rect x="4.13232" y="68.5474" width="6" height="6" rx="1" fill="white"/>
<rect x="4.13232" y="29.3775" width="6" height="6" rx="1" fill="white"/>
<rect x="62.8873" y="58.7549" width="6" height="6" rx="1" fill="white"/>
<rect x="62.8873" y="88.1324" width="6" height="6" rx="1" fill="white"/>
<rect x="62.8873" y="97.9249" width="6" height="6" rx="1" fill="white"/>
<rect x="62.8873" y="107.717" width="6" height="6" rx="1" fill="white"/>
<rect x="62.8873" y="117.51" width="6" height="6" rx="1" fill="white"/>
<rect x="62.8873" y="127.302" width="6" height="6" rx="1" fill="white"/>
<rect x="62.8873" y="137.095" width="6" height="6" rx="1" fill="white"/>
<rect x="62.8873" y="146.887" width="6" height="6" rx="1" fill="white"/>
<rect x="62.8873" y="156.68" width="6" height="6" rx="1" fill="white"/>
<rect x="62.8873" y="166.472" width="6" height="6" rx="1" fill="white"/>
<rect x="141.227" y="88.1324" width="6" height="6" rx="1" fill="white"/>
<rect x="62.8873" y="48.9624" width="6" height="6" rx="1" fill="white"/>
<rect x="62.8873" y="78.34" width="6" height="6" rx="1" fill="white"/>
<rect x="111.85" y="78.34" width="6" height="6" rx="1" fill="white"/>
<rect x="111.85" y="68.5474" width="6" height="6" rx="1" fill="white"/>
<rect x="82.4723" y="78.34" width="6" height="6" rx="1" fill="white"/>
<rect x="131.435" y="78.34" width="6" height="6" rx="1" fill="white"/>
<rect x="131.435" y="68.5474" width="6" height="6" rx="1" fill="white"/>
<rect x="131.435" y="58.7549" width="6" height="6" rx="1" fill="white"/>
<rect x="62.8873" y="39.17" width="6" height="6" rx="1" fill="white"/>
<rect x="121.642" y="39.17" width="6" height="6" rx="1" fill="white"/>
<rect x="121.642" y="29.3775" width="6" height="6" rx="1" fill="white"/>
<rect x="192.415" y="29.3775" width="6" height="6" rx="1" fill="white"/>
<rect x="192.415" y="39.17" width="6" height="6" rx="1" fill="white"/>
<rect x="192.415" y="48.9624" width="6" height="6" rx="1" fill="white"/>
<rect x="192.415" y="58.7549" width="6" height="6" rx="1" fill="white"/>
<rect x="192.415" y="19.585" width="6" height="6" rx="1" fill="white"/>
<rect x="192.415" y="9.79248" width="6" height="6" rx="1" fill="white"/>
<rect x="221.793" y="29.3775" width="6" height="6" rx="1" fill="white"/>
<rect x="221.793" y="39.17" width="6" height="6" rx="1" fill="white"/>
<rect x="221.793" y="19.585" width="6" height="6" rx="1" fill="white"/>
<rect x="221.793" y="9.79248" width="6" height="6" rx="1" fill="white"/>
<rect x="221.793" width="6" height="6" rx="1" fill="white"/>
<rect x="62.8873" y="68.5474" width="6" height="6" rx="1" fill="white"/>
<rect x="13.9248" y="58.7549" width="6" height="6" rx="1" fill="white"/>
<rect x="13.9248" y="88.1324" width="6" height="6" rx="1" fill="white"/>
<rect x="13.9248" y="97.9249" width="6" height="6" rx="1" fill="white"/>
<rect x="13.9248" y="107.717" width="6" height="6" rx="1" fill="white"/>
<rect x="13.9248" y="117.51" width="6" height="6" rx="1" fill="white"/>
<rect x="13.9248" y="127.302" width="6" height="6" rx="1" fill="white"/>
<rect x="13.9248" y="137.095" width="6" height="6" rx="1" fill="white"/>
<rect x="13.9248" y="146.887" width="6" height="6" rx="1" fill="white"/>
<rect x="13.9248" y="156.68" width="6" height="6" rx="1" fill="white"/>
<rect x="13.9248" y="166.472" width="6" height="6" rx="1" fill="white"/>
<rect x="13.9248" y="176.265" width="6" height="6" rx="1" fill="white"/>
<rect x="13.9248" y="186.057" width="6" height="6" rx="1" fill="white"/>
<rect x="13.9248" y="195.85" width="6" height="6" rx="1" fill="white"/>
<rect x="33.5099" y="195.85" width="6" height="6" rx="1" fill="white"/>
<rect x="33.5099" y="205.642" width="6" height="6" rx="1" fill="white"/>
<rect x="33.5099" y="186.057" width="6" height="6" rx="1" fill="white"/>
<rect x="92.2649" y="88.1324" width="6" height="6" rx="1" fill="white"/>
<rect x="92.2649" y="97.9249" width="6" height="6" rx="1" fill="white"/>
<rect x="92.2649" y="107.717" width="6" height="6" rx="1" fill="white"/>
<rect x="92.2649" y="117.51" width="6" height="6" rx="1" fill="white"/>
<rect x="13.9248" y="48.9624" width="6" height="6" rx="1" fill="white"/>
<rect x="13.9248" y="78.34" width="6" height="6" rx="1" fill="white"/>
<rect x="13.9248" y="39.17" width="6" height="6" rx="1" fill="white"/>
<rect x="13.9248" y="68.5474" width="6" height="6" rx="1" fill="white"/>
<rect x="72.6799" y="58.7549" width="6" height="6" rx="1" fill="white"/>
<rect x="72.6799" y="88.1324" width="6" height="6" rx="1" fill="white"/>
<rect x="72.6799" y="97.9249" width="6" height="6" rx="1" fill="white"/>
<rect x="72.6799" y="107.717" width="6" height="6" rx="1" fill="white"/>
<rect x="72.6799" y="117.51" width="6" height="6" rx="1" fill="white"/>
<rect x="72.6799" y="127.302" width="6" height="6" rx="1" fill="white"/>
<rect x="72.6799" y="137.095" width="6" height="6" rx="1" fill="white"/>
<rect x="151.02" y="88.1324" width="6" height="6" rx="1" fill="white"/>
<rect x="151.02" y="97.9249" width="6" height="6" rx="1" fill="white"/>
<rect x="72.6799" y="48.9624" width="6" height="6" rx="1" fill="white"/>
<rect x="131.435" y="48.9624" width="6" height="6" rx="1" fill="white"/>
<rect x="141.227" y="48.9624" width="6" height="6" rx="1" fill="white"/>
<rect x="72.6799" y="78.34" width="6" height="6" rx="1" fill="white"/>
<rect x="121.642" y="78.34" width="6" height="6" rx="1" fill="white"/>
<rect x="121.642" y="68.5474" width="6" height="6" rx="1" fill="white"/>
<rect x="121.642" y="58.7549" width="6" height="6" rx="1" fill="white"/>
<rect x="92.2649" y="78.34" width="6" height="6" rx="1" fill="white"/>
<rect x="141.227" y="78.34" width="6" height="6" rx="1" fill="white"/>
<rect x="141.227" y="68.5474" width="6" height="6" rx="1" fill="white"/>
<rect x="151.02" y="78.34" width="6" height="6" rx="1" fill="white"/>
<rect x="72.6799" y="39.17" width="6" height="6" rx="1" fill="white"/>
<rect x="131.435" y="29.3775" width="6" height="6" rx="1" fill="white"/>
<rect x="202.208" y="29.3775" width="6" height="6" rx="1" fill="white"/>
<rect x="202.208" y="39.17" width="6" height="6" rx="1" fill="white"/>
<rect x="202.208" y="19.585" width="6" height="6" rx="1" fill="white"/>
<rect x="202.208" y="9.79248" width="6" height="6" rx="1" fill="white"/>
<rect x="231.585" y="29.3775" width="6" height="6" rx="1" fill="white"/>
<rect x="231.585" y="39.17" width="6" height="6" rx="1" fill="white"/>
<rect x="231.585" y="19.585" width="6" height="6" rx="1" fill="white"/>
<rect x="231.585" y="9.79248" width="6" height="6" rx="1" fill="white"/>
<rect x="231.585" width="6" height="6" rx="1" fill="white"/>
<rect x="141.227" y="29.3775" width="6" height="6" rx="1" fill="white"/>
<rect x="212" y="29.3775" width="6" height="6" rx="1" fill="white"/>
<rect x="212" y="39.17" width="6" height="6" rx="1" fill="white"/>
<rect x="212" y="19.585" width="6" height="6" rx="1" fill="white"/>
<rect x="212" y="9.79248" width="6" height="6" rx="1" fill="white"/>
<rect x="241.378" y="29.3775" width="6" height="6" rx="1" fill="white"/>
<rect x="241.378" y="19.585" width="6" height="6" rx="1" fill="white"/>
<rect x="241.378" y="48.9624" width="6" height="6" rx="1" fill="white"/>
<rect x="241.378" y="9.79248" width="6" height="6" rx="1" fill="white"/>
<rect x="241.378" width="6" height="6" rx="1" fill="white"/>
<rect x="251.17" y="19.585" width="6" height="6" rx="1" fill="white"/>
<rect x="251.17" y="48.9624" width="6" height="6" rx="1" fill="white"/>
<rect x="251.17" y="9.79248" width="6" height="6" rx="1" fill="white"/>
<rect x="251.17" width="6" height="6" rx="1" fill="white"/>
<rect x="260.963" y="9.79248" width="6" height="6" rx="1" fill="white"/>
<rect x="270.755" y="9.79248" width="6" height="6" rx="1" fill="white"/>
<rect x="182.623" y="39.17" width="6" height="6" rx="1" fill="white"/>
<rect x="182.623" y="48.9624" width="6" height="6" rx="1" fill="white"/>
<rect x="182.623" y="19.585" width="6" height="6" rx="1" fill="white"/>
<rect x="182.623" y="9.79248" width="6" height="6" rx="1" fill="white"/>
<rect x="172.83" y="9.79248" width="6" height="6" rx="1" fill="white"/>
<rect x="163.038" y="9.79248" width="6" height="6" rx="1" fill="white"/>
<rect x="72.6799" y="68.5474" width="6" height="6" rx="1" fill="white"/>
<rect x="23.7174" y="58.7549" width="6" height="6" rx="1" fill="white"/>
<rect x="23.7174" y="88.1324" width="6" height="6" rx="1" fill="white"/>
<rect x="23.7174" y="97.9249" width="6" height="6" rx="1" fill="white"/>
<rect x="23.7174" y="107.717" width="6" height="6" rx="1" fill="white"/>
<rect x="23.7174" y="117.51" width="6" height="6" rx="1" fill="white"/>
<rect x="23.7174" y="127.302" width="6" height="6" rx="1" fill="white"/>
<rect x="23.7174" y="137.095" width="6" height="6" rx="1" fill="white"/>
<rect x="23.7174" y="146.887" width="6" height="6" rx="1" fill="white"/>
<rect x="23.7174" y="156.68" width="6" height="6" rx="1" fill="white"/>
<rect x="102.057" y="88.1324" width="6" height="6" rx="1" fill="white"/>
<rect x="102.057" y="97.9249" width="6" height="6" rx="1" fill="white"/>
<rect x="102.057" y="107.717" width="6" height="6" rx="1" fill="white"/>
<rect x="23.7174" y="48.9624" width="6" height="6" rx="1" fill="white"/>
<rect x="82.4723" y="48.9624" width="6" height="6" rx="1" fill="white"/>
<rect x="23.7174" y="78.34" width="6" height="6" rx="1" fill="white"/>
<rect x="23.7174" y="39.17" width="6" height="6" rx="1" fill="white"/>
<rect x="82.4723" y="39.17" width="6" height="6" rx="1" fill="white"/>
<rect x="23.7174" y="68.5474" width="6" height="6" rx="1" fill="white"/>
<rect x="33.5099" y="58.7549" width="6" height="6" rx="1" fill="white"/>
<rect x="33.5099" y="88.1324" width="6" height="6" rx="1" fill="white"/>
<rect x="33.5099" y="97.9249" width="6" height="6" rx="1" fill="white"/>
<rect x="33.5099" y="107.717" width="6" height="6" rx="1" fill="white"/>
<rect x="33.5099" y="117.51" width="6" height="6" rx="1" fill="white"/>
<rect x="33.5099" y="127.302" width="6" height="6" rx="1" fill="white"/>
<rect x="33.5099" y="137.095" width="6" height="6" rx="1" fill="white"/>
<rect x="33.5099" y="146.887" width="6" height="6" rx="1" fill="white"/>
<rect x="111.85" y="88.1324" width="6" height="6" rx="1" fill="white"/>
<rect x="111.85" y="97.9249" width="6" height="6" rx="1" fill="white"/>
<rect x="111.85" y="107.717" width="6" height="6" rx="1" fill="white"/>
<rect x="33.5099" y="48.9624" width="6" height="6" rx="1" fill="white"/>
<rect x="92.2649" y="48.9624" width="6" height="6" rx="1" fill="white"/>
<rect x="33.5099" y="78.34" width="6" height="6" rx="1" fill="white"/>
<rect x="33.5099" y="39.17" width="6" height="6" rx="1" fill="white"/>
<rect x="92.2649" y="39.17" width="6" height="6" rx="1" fill="white"/>
<rect x="33.5099" y="68.5474" width="6" height="6" rx="1" fill="white"/>
</g>
</svg>
