<svg width="51" height="70" viewBox="0 0 51 70" fill="none" xmlns="http://www.w3.org/2000/svg">
<path fill-rule="evenodd" clip-rule="evenodd" d="M0.454102 3.93168C0.454102 2.01103 1.92881 0.454041 3.74797 0.454041H28.7813C39.575 0.454041 48.3249 9.69219 48.3249 21.088C48.3249 32.4838 39.575 41.722 28.7813 41.722H23.072C21.2528 41.722 19.7781 40.165 19.7781 38.2444C19.7781 36.3237 21.2528 34.7667 23.072 34.7667H28.7813C35.9367 34.7667 41.7372 28.6426 41.7372 21.088C41.7372 13.5335 35.9367 7.40931 28.7813 7.40931H3.74797C1.92881 7.40931 0.454102 5.85232 0.454102 3.93168Z" fill="#1069F9"/>
<path fill-rule="evenodd" clip-rule="evenodd" d="M7.05697 0.454041V69.454H0.454102V0.454041H7.05697Z" fill="#1069F9"/>
<path fill-rule="evenodd" clip-rule="evenodd" d="M17.2914 4.08563L17.2914 69.4541H10.6885L10.6885 4.08563L17.2914 4.08563Z" fill="#1069F9"/>
<path fill-rule="evenodd" clip-rule="evenodd" d="M41.5386 41.1594C43.037 39.9662 45.2236 40.208 46.4223 41.6996C47.2332 42.7085 47.9726 43.9276 48.5655 45.0013C50.4072 48.3367 50.6414 52.1004 49.9438 55.4714C48.3662 63.0949 41.8859 68.7427 34.0859 69.2921L31.7867 69.4541H16.144C14.2251 69.4541 12.6694 67.9056 12.6694 65.9954C12.6694 64.0853 14.2251 62.5368 16.144 62.5368H31.5411L33.5954 62.3921C38.2888 62.0615 42.1882 58.6631 43.1375 54.0758C43.5794 51.9407 43.3543 49.9245 42.4756 48.3332C41.957 47.3939 41.4408 46.5742 40.9959 46.0208C39.7972 44.5292 40.0401 42.3527 41.5386 41.1594Z" fill="#1069F9"/>
</svg>
