<svg xmlns="http://www.w3.org/2000/svg"
    xmlns:xlink="http://www.w3.org/1999/xlink" width="35" height="35" viewBox="0 0 40 40">
    <defs>
        <style>.a{fill-rule:evenodd;fill:url(#a);}</style>
        <linearGradient id="a" x1="0.5" x2="0.5" y2="1" gradientUnits="objectBoundingBox">
            <stop offset="0"/>
            <stop offset="1" stop-opacity="0"/>
        </linearGradient>
    </defs>
    <path class="a" d="M20.5,28.571A1.429,1.429,0,0,1,21.929,30v8.571a1.429,1.429,0,0,1-2.857,0V30A1.429,1.429,0,0,1,20.5,28.571Zm-4.286-1.148a1.429,1.429,0,0,1,.523,1.951L12.451,36.8a1.429,1.429,0,0,1-2.474-1.429l4.286-7.423A1.429,1.429,0,0,1,16.214,27.423Zm10.523.523,4.286,7.423A1.429,1.429,0,0,1,28.549,36.8l-4.286-7.423a1.429,1.429,0,0,1,2.474-1.429Zm-13.66-3.66a1.429,1.429,0,0,1-.523,1.951L5.131,30.523A1.429,1.429,0,0,1,3.7,28.049l7.423-4.286A1.429,1.429,0,0,1,13.077,24.286Zm16.8-.523L37.3,28.049a1.429,1.429,0,0,1-1.429,2.474l-7.423-4.286a1.429,1.429,0,1,1,1.429-2.474ZM10.5,18.571a1.429,1.429,0,1,1,0,2.857H1.929a1.429,1.429,0,1,1,0-2.857Zm28.571,0a1.429,1.429,0,0,1,0,2.857H30.5a1.429,1.429,0,1,1,0-2.857ZM5.131,9.477l7.423,4.286a1.429,1.429,0,0,1-1.429,2.474L3.7,11.951A1.429,1.429,0,0,1,5.131,9.477ZM37.821,10a1.429,1.429,0,0,1-.523,1.951l-7.423,4.286a1.429,1.429,0,1,1-1.429-2.474l7.423-4.286A1.429,1.429,0,0,1,37.821,10ZM12.451,3.2l4.286,7.423a1.429,1.429,0,0,1-2.474,1.429L9.977,4.631A1.429,1.429,0,0,1,12.451,3.2ZM30.5,2.679a1.429,1.429,0,0,1,.523,1.951l-4.286,7.423a1.429,1.429,0,1,1-2.474-1.429L28.549,3.2A1.429,1.429,0,0,1,30.5,2.679ZM20.5,0a1.429,1.429,0,0,1,1.429,1.429V10a1.429,1.429,0,1,1-2.857,0V1.429A1.429,1.429,0,0,1,20.5,0Z" transform="translate(-0.5)"/>
</svg>